<?xml version="1.0" standalone="no"?>
<!DOCTYPE svg PUBLIC "-//W3C//DTD SVG 20010904//EN"
 "http://www.w3.org/TR/2001/REC-SVG-20010904/DTD/svg10.dtd">
<svg version="1.0" xmlns="http://www.w3.org/2000/svg"
 width="512.000000pt" height="512.000000pt" viewBox="0 0 512.000000 512.000000"
 preserveAspectRatio="xMidYMid meet">
<metadata>
Created by potrace 1.14, written by Peter Selinger 2001-2017
</metadata>
<g transform="translate(0.000000,512.000000) scale(0.100000,-0.100000)"
fill="#000000" stroke="none">
<path d="M1158 4562 c-28 -33 -30 -39 -24 -88 5 -46 3 -56 -18 -81 -43 -52
-47 -66 -40 -175 5 -73 12 -112 25 -133 12 -21 15 -35 9 -45 -6 -8 -10 -24
-10 -35 0 -15 5 -11 17 14 13 26 15 41 6 71 -5 22 -7 44 -3 50 8 12 40 -64 40
-95 0 -13 3 -16 8 -8 4 6 7 57 7 112 -1 113 9 112 25 0 42 -282 50 -315 87
-359 14 -17 23 -34 19 -37 -14 -14 -50 39 -71 104 -26 81 -46 90 -97 44 -49
-43 -46 -96 9 -176 37 -55 83 -137 83 -149 0 -3 -7 -3 -15 0 -12 5 -14 0 -7
-27 4 -19 7 -63 7 -99 l0 -66 -123 -133 c-199 -217 -259 -324 -269 -476 -10
-145 26 -308 125 -578 36 -98 68 -174 72 -170 4 4 14 52 23 105 23 131 105
378 126 378 5 0 -4 -34 -20 -76 -41 -106 -75 -228 -104 -376 -31 -157 -31
-159 0 -255 17 -53 29 -118 35 -203 12 -152 16 -183 41 -285 22 -90 110 -325
121 -325 5 0 8 21 8 48 0 47 -29 139 -89 281 -17 41 -29 76 -26 79 6 7 76
-144 104 -228 35 -100 36 -314 5 -581 -5 -42 -4 -47 18 -52 12 -4 57 -7 99 -7
60 0 82 4 100 19 l23 19 -31 68 c-61 133 -73 200 -76 415 -1 107 2 255 7 330
11 167 4 202 -72 364 -48 101 -57 129 -56 175 0 63 12 89 91 198 64 90 102
162 149 284 74 190 93 354 64 558 -12 90 -12 97 8 135 11 22 35 54 52 70 105
97 262 358 295 490 14 56 21 206 10 217 -3 3 -21 -9 -39 -26 -18 -17 -53 -46
-77 -63 -24 -18 -59 -45 -76 -59 -18 -15 -33 -22 -33 -15 0 6 30 34 67 63 36
29 84 69 105 89 35 34 38 41 38 93 0 31 -7 70 -15 85 -19 37 -71 81 -96 81
-34 0 -75 -27 -102 -69 -57 -86 -120 -31 -141 124 -10 72 -32 134 -65 183 -44
67 -173 212 -188 212 -8 0 -16 6 -19 13 -3 9 -22 14 -50 14 -39 0 -49 -5 -76
-35z"/>
<path d="M1535 4321 c13 -27 31 -87 39 -133 15 -87 30 -133 48 -155 9 -11 22
-2 62 42 49 52 55 55 99 55 59 0 90 -19 124 -78 27 -46 28 -51 39 -263 7 -136
-28 -257 -116 -401 l-30 -49 852 -1409 851 -1410 144 0 143 0 0 1718 c1 944 5
1761 9 1814 10 108 30 160 74 192 26 19 45 21 208 24 l179 4 0 49 0 49 -517
-2 -518 -3 0 -45 0 -45 170 -5 c192 -6 220 -14 249 -74 9 -19 21 -59 26 -88 6
-33 9 -502 8 -1254 l-3 -1201 -826 1356 -826 1356 -257 3 -257 2 26 -49z"/>
</g>
</svg>
